<svg width="6" height="10" viewBox="0 0 6 10" fill="none" xmlns="http://www.w3.org/2000/svg">
<path opacity="0.8" d="M1.03662 2.79917L2.91162 1.03447C2.96046 0.988512 3.03956 0.988512 3.08838 1.03446L4.96338 2.79916C4.98779 2.82215 5 2.85225 5 2.88235C5 2.91245 4.98779 2.94256 4.96338 2.96553C4.91456 3.01149 4.83546 3.01149 4.78663 2.96553L3.12501 1.40165L2.875 1.40165L1.21338 2.96553C1.16456 3.01149 1.08546 3.01149 1.03662 2.96553C0.987792 2.91958 0.987792 2.84513 1.03662 2.79917Z" fill="#C2C2C2" stroke="#C2C2C2" stroke-width="0.8"/>
<path opacity="0.8" d="M4.96338 7.20083L3.08838 8.96553C3.03954 9.01149 2.96044 9.01149 2.91162 8.96554L1.03662 7.20084C1.01221 7.17785 1 7.14775 1 7.11765C1 7.08755 1.01221 7.05744 1.03662 7.03447C1.08544 6.98851 1.16454 6.98851 1.21337 7.03447L2.87499 8.59835L3.125 8.59835L4.78662 7.03447C4.83544 6.98851 4.91454 6.98851 4.96338 7.03447C5.01221 7.08042 5.01221 7.15487 4.96338 7.20083Z" fill="#1BB26A" stroke="#1BB26A" stroke-width="0.8"/>
</svg>
