<svg width="22" height="24" viewBox="0 0 22 24" fill="none" xmlns="http://www.w3.org/2000/svg">
<path d="M19.1703 17.5834H18.996V10.105C18.979 6.66752 16.7769 3.62175 13.5179 2.52815L13.5255 2.52562C13.5255 1.13079 12.3947 0 10.9999 0C9.60505 0 8.47427 1.13079 8.47427 2.52562C5.21394 3.62332 3.01431 6.67497 3.00376 10.1151V17.5935H2.8295C2.31383 17.5933 1.81931 17.7987 1.45556 18.1643L1.43535 18.187C1.08252 18.5483 0.884892 19.0332 0.884766 19.5382C0.885208 20.0531 1.0906 20.5465 1.45556 20.9096C1.81868 21.2746 2.31212 21.48 2.82697 21.4804H9.05011V22.0462C9.04998 22.5646 9.25626 23.0617 9.62343 23.4277L9.64616 23.4479C10.4094 24.1918 11.6292 24.1829 12.3814 23.4277C12.7488 23.0619 12.9552 22.5646 12.9547 22.0462V21.4804H19.1728C19.6877 21.48 20.1811 21.2746 20.5442 20.9096C20.9116 20.5441 21.1172 20.0465 21.115 19.5281C21.1136 18.4547 20.2437 17.5848 19.1703 17.5834ZM10.6254 0.955381C11.5725 0.748595 12.5079 1.34868 12.7148 2.29579C12.2621 2.19597 11.8015 2.13592 11.3383 2.11647H10.9999V2.11395H10.7145C10.2335 2.13112 9.75501 2.19199 9.28499 2.29579C9.43135 1.62537 9.95498 1.10174 10.6254 0.955381ZM3.77155 10.1101C3.78311 6.23065 6.846 3.04754 10.7221 2.88679H10.9014H10.9999V2.89184H11.0984H11.2777C15.1538 3.0526 18.2167 6.2357 18.2282 10.1151V17.5834H3.77155V10.1101ZM11.8384 22.8721C11.3834 23.3288 10.6462 23.3367 10.1816 22.8897L10.1639 22.8721C9.94134 22.6507 9.81594 22.3499 9.81537 22.0361V21.4703H12.1844L12.1869 22.0361C12.1864 22.3499 12.061 22.6507 11.8384 22.8721ZM20.0037 20.3565C19.7834 20.577 19.4844 20.7006 19.1728 20.7H2.8295C2.18148 20.6986 1.65647 20.1736 1.65508 19.5256C1.65445 19.2226 1.77126 18.9311 1.98089 18.7124L1.99857 18.6972C2.21785 18.4765 2.51588 18.352 2.82697 18.3512H18.6121H19.1703C19.8177 18.354 20.3419 18.8782 20.3447 19.5256C20.3459 19.8369 20.2232 20.1359 20.0037 20.3565Z" fill="#878E92"/>
</svg>
